<svg viewBox="0 0 238 64" fill="none" xmlns="http://www.w3.org/2000/svg"><path d="M0 7.633h7.914l12.28 31.313L32.42 7.633h7.734L23.282 48.659h-6.343L-.001 7.632z" fill="white"/><path d="M102.18 32.31 86 7.634H94.5l11.35 17.986 11.517-17.987h8.206l-16.177 24.499v16.235h-7.217V32.3v.01z" fill="white"/><path d="M137.562 7.341h6.634l17.927 41.027h-7.566l-4.13-9.835h-19.264l-4.188 9.835h-7.33L137.572 7.34h-.01zm10.24 24.848-7.04-16.292-6.983 16.292h14.02z" fill="white"/><path d="M162.406 28.122v-.113c0-11.408 8.733-21.064 21.004-21.064 7.095 0 11.462 1.976 15.65 5.524l-4.536 5.412c-3.143-2.673-6.23-4.367-11.406-4.367-7.51 0-13.212 6.58-13.212 14.372V28c0 8.376 5.524 14.55 13.852 14.55 3.84 0 7.33-1.223 9.834-3.087V31.84h-10.417v-6.23h17.343v17.11c-4.018 3.435-9.777 6.343-16.995 6.343-12.742 0-21.127-9.082-21.127-20.95l.01.01z" fill="white"/><path d="M207.51 7.633h30.198v6.4h-23.046V24.62h20.42v6.4h-20.42v10.947H238v6.4h-30.49V7.633z" fill="white"/><path d="m84.788 20.32 1.892-1.092a3.582 3.582 0 0 0-3.585-6.202l-1.902 1.1a23.283 23.283 0 0 1 3.595 6.203v-.01z" fill="url(#paint0_linear_301_83)"/><path d="M63.173 5.496c1.214 0 2.419.095 3.586.273V3.585C66.758 1.609 65.158 0 63.172 0a3.58 3.58 0 0 0-3.585 3.586v2.183a23.636 23.636 0 0 1 3.585-.274z" fill="url(#paint1_linear_301_83)"/><path d="M63.172 8.856c-10.925 0-19.809 8.885-19.809 19.812s8.884 19.812 19.81 19.812c10.925 0 19.808-8.885 19.808-19.812.001-10.927-8.882-19.812-19.808-19.812zM49.5 28.668c-.001-1.892.385-3.699 1.081-5.336l7.407 4.273a5.567 5.567 0 0 0-.103 1.054c0 .356.037.714.103 1.053l-7.406 4.273a13.617 13.617 0 0 1-1.081-5.337v.018zM61.496 42.24a13.655 13.655 0 0 1-9.231-5.337l7.406-4.282a5.363 5.363 0 0 0 1.825 1.055v8.565zm0-18.588a5.36 5.36 0 0 0-1.825 1.054l-7.406-4.282a13.655 13.655 0 0 1 9.231-5.337v8.565zm3.36-8.556a13.654 13.654 0 0 1 9.231 5.337l-7.406 4.282a5.36 5.36 0 0 0-1.825-1.054v-8.564zm0 18.589a5.363 5.363 0 0 0 1.825-1.054l7.406 4.283a13.654 13.654 0 0 1-9.231 5.336v-8.565zm10.916.32-7.406-4.273c.066-.34.103-.697.103-1.054 0-.358-.037-.716-.103-1.054l7.406-4.273a13.617 13.617 0 0 1 1.082 5.337c0 1.892-.386 3.699-1.082 5.336v-.018z" fill="url(#paint2_linear_301_83)"/><path d="M63.173 51.84c-1.214 0-2.418-.094-3.585-.273v2.184c0 1.977 1.6 3.586 3.585 3.586a3.58 3.58 0 0 0 3.586-3.585v-2.183a23.64 23.64 0 0 1-3.587.273z" fill="url(#paint3_linear_301_83)"/><path d="m86.68 38.099-1.892-1.093a23.03 23.03 0 0 1-3.595 6.202l1.901 1.1a3.582 3.582 0 0 0 3.586-6.202v-.01z" fill="url(#paint4_linear_301_83)"/><path d="m39.666 19.228 1.891 1.092a23.03 23.03 0 0 1 3.595-6.202l-1.9-1.101a3.582 3.582 0 0 0-3.586 6.202v.008z" fill="url(#paint5_linear_301_83)"/><path d="M41.557 37.007 39.666 38.1A3.583 3.583 0 0 0 43.25 44.3l1.9-1.102a23.277 23.277 0 0 1-3.593-6.202v.01z" fill="url(#paint6_linear_301_83)"/><path d="M120.82 55.021h1.017l3.227 4.839 3.228-4.839h1.017v8.858h-1v-7.182l-3.227 4.744h-.047l-3.228-4.734v7.162h-.978v-8.856l-.01.01z" fill="white"/><path d="M144.195 54.955h.932l4.037 8.923h-1.073l-1.034-2.344h-4.818l-1.054 2.344h-1.026l4.037-8.923zm2.466 5.666-2.013-4.507-2.023 4.508h4.037z" fill="white"/><path d="M160.033 55.021h3.81c1.093.001 1.96.33 2.523.886.433.433.687 1.054.687 1.75v.029c0 1.468-1.016 2.324-2.41 2.579l2.72 3.623h-1.222l-2.568-3.445h-2.532v3.445h-.997v-8.856l-.01-.009zm3.717 4.519c1.327-.001 2.278-.688 2.278-1.827v-.028c0-1.092-.838-1.75-2.268-1.75h-2.73v3.594h2.72v.009z" fill="white"/><path d="M178.3 55.021h.996v5.29l5.09-5.289h1.29l-3.792 3.879 3.962 4.987h-1.252l-3.406-4.292-1.882 1.91v2.382h-.998v-8.856l-.01-.009z" fill="white"/><path d="M196.508 55.021h6.4v.914h-5.403v3.021h4.837v.913h-4.837v3.097h5.468v.913h-6.465V55.02z" fill="white"/><path d="M216.44 55.944h-2.973v-.923h6.964v.924h-2.973v7.934h-1.016v-7.934z" fill="white"/><path d="m230.64 62.588.62-.734c.924.838 1.808 1.252 3.04 1.252 1.234 0 1.977-.63 1.977-1.506v-.028c0-.82-.442-1.29-2.305-1.685-2.042-.442-2.974-1.101-2.974-2.56V57.3c0-1.394 1.223-2.42 2.908-2.42 1.29 0 2.21.367 3.115 1.092l-.583.771c-.818-.668-1.647-.96-2.56-.96-1.147 0-1.882.631-1.882 1.431v.028c0 .838.452 1.309 2.41 1.723 1.976.433 2.89 1.148 2.89 2.503v.028c0 1.516-1.262 2.504-3.022 2.504-1.402 0-2.56-.47-3.623-1.421l-.01.008z" fill="white"/><defs><linearGradient id="paint0_linear_301_83" x1="63.1727" y1="0" x2="63.1727" y2="67.3016" gradientUnits="userSpaceOnUse"><stop stop-color="#BFE5FF"/><stop offset="0.713542" stop-color="#8364FF"/><stop offset="0.953125" stop-color="#784DFF"/></linearGradient><linearGradient id="paint1_linear_301_83" x1="63.1727" y1="0" x2="63.1727" y2="67.3016" gradientUnits="userSpaceOnUse"><stop stop-color="#BFE5FF"/><stop offset="0.713542" stop-color="#8364FF"/><stop offset="0.953125" stop-color="#784DFF"/></linearGradient><linearGradient id="paint2_linear_301_83" x1="63.1727" y1="0" x2="63.1727" y2="67.3016" gradientUnits="userSpaceOnUse"><stop stop-color="#BFE5FF"/><stop offset="0.713542" stop-color="#8364FF"/><stop offset="0.953125" stop-color="#784DFF"/></linearGradient><linearGradient id="paint3_linear_301_83" x1="63.1727" y1="0" x2="63.1727" y2="67.3016" gradientUnits="userSpaceOnUse"><stop stop-color="#BFE5FF"/><stop offset="0.713542" stop-color="#8364FF"/><stop offset="0.953125" stop-color="#784DFF"/></linearGradient><linearGradient id="paint4_linear_301_83" x1="63.1727" y1="0" x2="63.1727" y2="67.3016" gradientUnits="userSpaceOnUse"><stop stop-color="#BFE5FF"/><stop offset="0.713542" stop-color="#8364FF"/><stop offset="0.953125" stop-color="#784DFF"/></linearGradient><linearGradient id="paint5_linear_301_83" x1="63.1727" y1="0" x2="63.1727" y2="67.3016" gradientUnits="userSpaceOnUse"><stop stop-color="#BFE5FF"/><stop offset="0.713542" stop-color="#8364FF"/><stop offset="0.953125" stop-color="#784DFF"/></linearGradient><linearGradient id="paint6_linear_301_83" x1="63.1727" y1="0" x2="63.1727" y2="67.3016" gradientUnits="userSpaceOnUse"><stop stop-color="#BFE5FF"/><stop offset="0.713542" stop-color="#8364FF"/><stop offset="0.953125" stop-color="#784DFF"/></linearGradient></defs></svg>