<svg viewBox="0 0 43 54" fill="none" xmlns="http://www.w3.org/2000/svg">
<path d="M2.675 20.015C1.345 20.015 0.275002 21.045 0.275002 22.395V34.025C0.275002 35.335 1.345 36.405 2.675 36.405C4.005 36.405 5.095 35.335 5.095 34.025V22.395C5.095 21.045 4.005 20.015 2.675 20.015Z" fill="#fff"/>
<path d="M40.3054 20.0149C38.9954 20.0149 37.9254 21.0449 37.9254 22.3949V34.0249C37.9254 35.3349 38.9954 36.4049 40.3054 36.4049C41.6154 36.4049 42.7254 35.3349 42.7254 34.0249V22.3949C42.7254 21.0449 41.6354 20.0149 40.3054 20.0149Z" fill="#fff"/>
<path d="M7.2457 20.0149V41.5349C7.2457 43.5249 8.8557 45.1449 10.8357 45.1449H14.6857V51.2549C14.6857 52.5649 15.7557 53.6349 17.0857 53.6349C18.4157 53.6349 19.4657 52.5649 19.4657 51.2549V45.1449H23.5557V51.2549C23.5557 52.5649 24.6657 53.6349 25.9757 53.6349C27.2857 53.6349 28.3757 52.5649 28.3757 51.2549V45.1449H32.2257C34.2057 45.1449 35.8157 43.5149 35.8157 41.5349V20.0149H7.2457Z" fill="#fff"/>
<path d="M28.5141 5.44499L31.0741 0.64499L30.5341 0.36499L27.9741 5.16499C26.0241 4.17499 23.8441 3.57499 21.5241 3.57499C19.2041 3.57499 17.2341 4.12499 15.3741 5.04499L12.8741 0.36499L12.3341 0.64499L14.8141 5.32499C10.3841 7.62499 7.37406 12.355 7.31406 17.715H35.7141C35.6941 12.435 32.7741 7.82499 28.5141 5.44499ZM14.2041 12.235C13.4541 12.235 12.8741 11.635 12.8741 10.885C12.8741 10.175 13.4541 9.57499 14.2041 9.57499C14.9541 9.57499 15.5541 10.175 15.5541 10.885C15.5541 11.635 14.9341 12.235 14.2041 12.235ZM28.6141 12.235C27.8441 12.235 27.2441 11.635 27.2441 10.885C27.2441 10.175 27.8441 9.57499 28.6141 9.57499C29.3441 9.57499 29.9441 10.175 29.9441 10.885C29.9441 11.635 29.3441 12.235 28.6141 12.235Z" fill="#fff"/>
</svg>
