<svg  viewBox="0 0 41 48" fill="none" xmlns="http://www.w3.org/2000/svg">
<path fill-rule="evenodd" clip-rule="evenodd" d="M12.2896 11.455C13.9196 11.455 15.3896 11.855 16.8196 12.405C17.7096 12.645 18.5696 13.005 19.4796 13.275C21.1096 13.675 22.6796 13.475 24.2396 12.875C25.3496 12.435 26.4396 12.005 27.6096 11.725C31.1196 10.935 34.2596 11.725 37.0596 13.905C37.8496 14.465 38.5496 15.135 39.1596 15.925C39.3996 16.205 39.3996 16.245 39.0796 16.445C36.1396 18.235 34.4596 20.855 34.1596 24.225C33.8596 27.405 34.8296 30.215 37.0596 32.525C38.0096 33.515 39.1396 34.315 40.4296 34.865C40.7896 34.985 40.8096 35.065 40.6496 35.375C39.2196 38.715 37.3196 41.765 34.9496 44.465C34.1596 45.335 33.2196 46.215 32.1296 46.805C30.3996 47.755 28.6596 47.795 26.8696 47.005C26.1396 46.725 25.4396 46.335 24.6896 46.095C22.2096 45.265 19.8096 45.425 17.4096 46.415C16.7696 46.695 16.1596 46.975 15.5196 47.165C13.2196 47.995 11.1696 47.485 9.26959 46.015C8.09959 45.105 7.16959 44.025 6.30959 42.795C4.30959 40.095 2.73959 37.195 1.66959 33.985C0.909589 31.735 0.439589 29.395 0.299589 27.015C0.159589 24.395 0.359589 21.775 1.40959 19.395C3.07959 15.505 5.89959 12.925 9.91959 11.735C10.7096 11.535 11.5096 11.415 12.2796 11.455H12.2896Z" fill="#fff"/>
<path fill-rule="evenodd" clip-rule="evenodd" d="M29.5396 1.48496C29.5196 3.74496 28.8296 5.61496 27.6896 7.32496C26.3596 9.34496 24.5696 10.665 22.3296 11.415C21.6396 11.655 20.9596 11.735 20.2296 11.735C19.9296 11.735 19.8296 11.655 19.8096 11.335C19.6096 9.74496 20.0096 8.19496 20.6796 6.76496C22.0496 3.82496 24.3096 1.92496 27.3096 0.854961C27.9096 0.614961 28.5196 0.494961 29.1796 0.454961C29.4396 0.334961 29.4996 0.574961 29.4996 0.774961C29.5196 1.05496 29.5796 1.37496 29.5396 1.49496V1.48496Z" fill="#fff"/>
</svg>
