<svg width="65" height="65" viewBox="0 0 65 65" fill="none" xmlns="http://www.w3.org/2000/svg">
<path d="M35.0705 56.19C34.6505 56.19 34.3105 55.85 34.3105 55.43V48.76C34.3105 48.34 34.6505 48 35.0705 48C35.4905 48 35.8305 48.34 35.8305 48.76V55.43C35.8305 55.85 35.4905 56.19 35.0705 56.19Z" fill="white"/>
<path d="M35.0705 18.18C34.6505 18.18 34.3105 17.84 34.3105 17.42V10.76C34.3105 10.34 34.6505 10 35.0705 10C35.4905 10 35.8305 10.34 35.8305 10.76V17.43C35.8305 17.85 35.4905 18.19 35.0705 18.19V18.18Z" fill="white"/>
<path d="M27.8108 56.19C27.3908 56.19 27.0508 55.85 27.0508 55.43V10.76C27.0508 10.34 27.3908 10 27.8108 10C28.2308 10 28.5708 10.34 28.5708 10.76V55.43C28.5708 55.85 28.2308 56.19 27.8108 56.19Z" fill="white"/>
<path d="M37.17 33.85H27.81C27.39 33.85 27.05 33.51 27.05 33.09C27.05 32.67 27.39 32.33 27.81 32.33H37.17C41.05 32.33 44.21 29.17 44.21 25.29V25.21C44.21 21.33 41.05 18.17 37.17 18.17H21.76C21.34 18.17 21 17.83 21 17.41C21 16.99 21.34 16.65 21.76 16.65H37.17C41.89 16.65 45.73 20.49 45.73 25.2V25.28C45.73 30 41.89 33.83 37.17 33.83V33.85Z" fill="white"/>
<path d="M37.17 49.52H21.76C21.34 49.52 21 49.18 21 48.76C21 48.34 21.34 48 21.76 48H37.17C41.05 48 44.21 44.84 44.21 40.96V40.88C44.21 37 41.05 33.84 37.17 33.84H27.81C27.39 33.84 27.05 33.5 27.05 33.08C27.05 32.66 27.39 32.32 27.81 32.32H37.17C41.89 32.32 45.73 36.16 45.73 40.87V40.95C45.73 45.67 41.89 49.5 37.17 49.5V49.52Z" fill="white"/>
</svg>
