<svg width="65" height="65" viewBox="0 0 65 65" fill="none" xmlns="http://www.w3.org/2000/svg">
<path d="M43.1939 30.63H21.9939C21.8439 30.63 21.7039 30.55 21.6139 30.43C21.5339 30.3 21.5139 30.14 21.5739 30L26.544 18.28C26.614 18.11 26.7739 18 26.9639 18H39.594C39.794 18 39.964 18.13 40.024 18.32L43.634 30.05C43.674 30.19 43.654 30.34 43.564 30.45C43.474 30.57 43.344 30.63 43.204 30.63H43.1939ZM22.6639 29.73H42.584L39.254 18.9H27.2539L22.6739 29.73H22.6639Z" fill="white" stroke="white" stroke-miterlimit="10"/>
<path d="M29.6649 47.78H8.45489C8.30489 47.78 8.16489 47.7 8.07489 47.58C7.99489 47.45 7.97489 47.29 8.03489 47.15L12.9949 35.42C13.0649 35.25 13.2249 35.14 13.4149 35.14H26.0449C26.2449 35.14 26.4149 35.27 26.4749 35.46L30.0849 47.19C30.1249 47.33 30.1049 47.48 30.0149 47.59C29.9249 47.71 29.7949 47.77 29.6549 47.77L29.6649 47.78ZM9.13489 46.88H29.0549L25.7249 36.05H13.7149L9.13489 46.88Z" fill="white" stroke="white" stroke-miterlimit="10"/>
<path d="M56.7352 47.7799H35.5252C35.3752 47.7799 35.2352 47.6999 35.1452 47.5799C35.0652 47.4499 35.0452 47.2899 35.1052 47.1499L40.0652 35.4199C40.1352 35.2499 40.2952 35.1399 40.4852 35.1399H53.1152C53.3152 35.1399 53.4852 35.2699 53.5452 35.4599L57.1552 47.1899C57.1952 47.3299 57.1752 47.4799 57.0852 47.5899C56.9952 47.7099 56.8652 47.7699 56.7252 47.7699L56.7352 47.7799ZM36.2052 46.8799H56.1252L52.7952 36.0499H40.7952L36.2152 46.8799H36.2052Z" fill="white" stroke="white" stroke-miterlimit="10"/>
</svg>
