<svg viewBox="0 0 55 50" fill="none" xmlns="http://www.w3.org/2000/svg">
<path fill-rule="evenodd" clip-rule="evenodd" d="M11.0904 3.435C11.0904 3.435 21.4304 -3.195 31.3004 4.305L26.4404 22.045C26.4404 22.045 17.0704 15.255 5.98039 21.585L11.0904 3.435Z" fill="#fff"/>
<path fill-rule="evenodd" clip-rule="evenodd" d="M34.4095 6.43496C34.4095 6.43496 42.9395 13.405 54.9095 7.30496L49.8295 25.045C49.8295 25.045 37.8595 32.175 29.3495 23.895L34.4095 6.42496V6.43496Z" fill="#fff"/>
<path fill-rule="evenodd" clip-rule="evenodd" d="M5.09 24.915C5.09 24.915 16.7 18.265 25.69 26.025L20.17 44.065C20.17 44.065 12.91 36.935 0.0799999 42.715L5.08 24.915H5.09Z" fill="#fff"/>
<path fill-rule="evenodd" clip-rule="evenodd" d="M28.3306 27.5951C28.3306 27.5951 35.6906 33.7451 48.0406 29.7551L43.0606 47.0451C43.0606 47.0451 29.9606 53.1751 23.4706 45.0651L28.3306 27.5951Z" fill="#fff"/>
</svg>
